<?xml version="1.0" encoding="UTF-8"?><svg id="Calque_2" xmlns="http://www.w3.org/2000/svg" viewBox="0 0 12.74 12.74"><defs><style>.cls-1{fill:#fff;}</style></defs><g id="Calque_1-2"><path class="cls-1" d="m6.37,12.74c-3.51,0-6.37-2.86-6.37-6.37S2.86,0,6.37,0s6.37,2.86,6.37,6.37-2.86,6.37-6.37,6.37ZM6.37.5C3.13.5.5,3.13.5,6.37s2.63,5.87,5.87,5.87,5.87-2.63,5.87-5.87S9.6.5,6.37.5Z"/><path class="cls-1" d="m9.41,8.95c-.63.48-1.42.76-2.27.76-2.11,0-3.82-1.71-3.82-3.81,0-1.81,1.26-3.32,2.95-3.7-.94.69-1.54,1.8-1.54,3.05,0,2.1,1.71,3.81,3.81,3.81.3,0,.59-.04.87-.11Z"/></g></svg>