<?xml version="1.0" encoding="UTF-8"?><svg id="Calque_2" xmlns="http://www.w3.org/2000/svg" viewBox="0 0 53.34 53.33"><defs><style>.cls-1{fill:#e2e2e2;}</style></defs><g id="Calque_1-2"><path class="cls-1" d="m26.67,0C17.88,0,10.08,4.25,5.23,10.81l4.05,2.5c4.01-5.21,10.31-8.57,17.39-8.57,11.45,0,20.84,8.76,21.83,19.95l4.82,2.97c0-.33.02-.66.02-1C53.34,11.93,41.4,0,26.67,0Zm0,48.59c-12.11,0-21.93-9.82-21.93-21.93,0-2.47.41-4.85,1.17-7.07l-4.12-2.54c-1.16,2.98-1.79,6.22-1.79,9.61,0,14.73,11.94,26.67,26.67,26.67,11.75,0,21.73-7.6,25.27-18.16h0s-4.17-2.58-4.17-2.58c-2.58,9.23-11.05,16-21.1,16Z"/></g></svg>