<?xml version="1.0" encoding="UTF-8"?><svg id="Calque_2" xmlns="http://www.w3.org/2000/svg" viewBox="0 0 2071.82 729.24"><defs><style>.cls-1{fill:#2f195f;}</style></defs><g id="Calque_1-2"><g><path class="cls-1" d="m2063.86,234.78c-12.33-23.8-36.87-38.1-65.6-38.1-10.36,0-21.33,1.85-33.17,5.3-2.1.62-4.32,1.36-6.53,2.22-14.8-29.47-44.39-48.46-78.67-48.46-20.1,0-39.21,6.66-55.24,19.24-2.1,1.48-4.19,3.21-6.17,5.18-8.88-3.21-18.25-4.93-27.5-4.93-8.38,0-16.77,1.23-26.02,4.07-8.63,2.96-15.17,6.04-21.46,9-5.55,2.71-7.28,3.58-10.73,4.32-15.29,2.96-33.79,5.18-50.43,7.15-22.93,2.47-36.5,4.19-47.47,7.77-7.15,2.47-14.18,5.3-20.84,8.76,4.44-4.56,8.88-9.12,13.32-13.56,32.06-32.43,72.01-72.87,50.43-128.49-12.7-32.43-44.39-53.27-81.26-53.27-26.39,0-51.42,11.22-68.56,30.83-34.53,39.71-52.04,82-66.09,116.03l-.99,2.22c-3.95,9.49-7.89,18.99-12.08,28.24-7.77,16.77-15.91,34.03-23.92,50.93-22.44-31.44-56.6-49.32-95.81-49.32-6.41,0-13.19.49-19.98,1.6-16.28,2.34-32.31,7.4-47.6,14.8-15.66-15.66-36.99-24.66-60.3-24.66-19.73,0-38.72,6.66-54.75,19.36-9.74,7.4-17.63,16.4-23.8,26.51-22.07-24.17-52.28-37.61-86.19-37.61-6.66,0-13.32.49-20.1,1.6-16.52,2.34-32.43,7.4-47.72,14.8-15.66-15.66-36.99-24.66-60.3-24.66-19.73,0-38.72,6.66-54.75,19.36-12.7,9.99-22.44,22.32-28.85,36.5-12.33-15.17-27.25-29.72-45.38-43.9-15.54-12.58-32.92-21.21-51.42-26.02-9.74-2.47-19.48-3.7-29.1-3.7-31.94,0-60.91,13.69-79.41,37.73-1.85,2.34-3.58,4.93-5.18,7.4-18.37-18.99-40.2-35.39-66.09-49.94-59.43-33.29-121.95-58.57-169.92-76.94-60.79-23.18-123.18-46.49-185.45-69.17-17.88-6.54-36.99-12.21-62.02-18.37C118.21,1.48,105.63,0,93.67,0c-3.45,0-6.78.12-10.23.25C48.91,2.96,20.55,21.33,7.36,49.57c-12.95,27.87-8.63,59.8,11.59,87.92,4.07,5.67,8.14,11.34,12.33,17.39,6.41,9,12.82,18,19.24,26.88,12.21,16.28,19.48,30.58,22.56,45.13,2.22,10.11,5.8,18.87,8.14,24.41,12.95,29.72,35.39,50.8,65.11,61.16,12.82,4.19,26.02,6.53,39.21,6.53,5.18,0,10.23-.37,15.29-.99-16.65,15.91-33.79,30.33-51.79,43.28-6.54,4.56-13.19,9.12-20.47,14.06-9.12,6.17-18.25,12.45-27.25,18.99-9.86,7.27-22.32,17.39-33.05,30.95-17.14,21.82-23.55,47.84-18.37,73.49,5.42,25.52,21.7,46.98,45.87,60.17,14.55,7.89,31.2,13.19,48.46,15.17,6.04.62,12.33,1.11,18.62,1.11,9,0,18.5-.74,29.35-1.97,54.99-7.28,102.96-13.93,147.1-20.47,43.4-6.41,100.5-16.52,156.72-37.86,35.88-13.81,67.2-30.7,95.19-51.54,21.46,34.53,55.98,57.95,101.11,68.43,7.27,1.73,14.55,2.84,21.83,3.33-4.44,11.59-8.39,23.18-11.47,34.53-3.82,12.95-6.66,26.63-9.25,44.27-3.45,23.43.86,46.98,12.45,67.94,16.28,29.1,46.86,47.35,79.66,47.35,5.55,0,11.1-.74,16.52-1.6,26.51-4.93,48.83-19.61,63.01-41.55,7.4-11.59,13.19-23.31,17.26-34.77,4.19-12.21,7.77-25.28,10.73-40.2,4.69-23.67,9.37-47.23,14.06-70.78,5.06,2.71,10.48,5.18,16.15,7.4,17.51,7.03,36.01,10.48,54.62,10.48,7.15,0,14.43-.49,21.58-1.48-1.48,4.32-2.84,8.76-4.19,12.95-3.7,12.95-6.66,26.76-9.12,44.27-3.45,23.43.99,46.98,12.58,67.94,16.15,29.1,46.86,47.35,79.66,47.35,5.55,0,11.1-.74,16.52-1.6,26.39-4.93,48.83-19.61,62.89-41.55,7.4-11.59,13.32-23.31,17.26-34.77,4.19-12.21,7.89-25.28,10.85-40.2,4.56-23.67,9.37-47.23,13.93-70.78,5.06,2.71,10.36,5.18,16.15,7.4,17.63,7.03,36.13,10.48,54.75,10.48,9.99,0,19.98-.99,29.96-2.84,33.79-6.66,63.38-20.84,87.67-42.66,9.49,4.07,20.1,6.17,31.57,6.17,1.73,0,3.7-.25,5.67-.25,30.46-1.73,83.36-7.89,127.13-29.22,3.45,5.67,7.15,10.73,10.85,15.54,22.44,27.13,53.64,42.29,87.79,42.29,16.52,0,33.05-3.58,48.71-10.73,14.18-6.41,27.74-15.29,39.33-25.52,5.3-4.81,10.73-9.74,16.28-14.92,16.52,23.43,43.16,37.61,71.52,37.61s55.24-13.93,72.38-38.23c11.96-16.65,18.37-36.25,19.61-58.32.62-12.7.37-24.66-.86-35.51-.49-5.06-1.6-28.36,18-37.48,10.23,6.66,22.56,10.11,35.64,10.11,28.85,0,60.42-17.39,78.92-43.28,22.07-30.83,27.13-68.68,12.95-96.18Zm-31.07,83.23c-14.3,19.85-39.21,33.79-60.79,33.79-9.86,0-19.11-2.84-26.39-8.38-2.59-2.22-5.67-3.45-7.89-3.45-47.35,11.47-41.8,63.38-41.68,63.87,1.11,10.11,1.36,20.84.74,32.06-.86,17.88-6.17,33.42-15.29,46.61-13.07,18.25-32.92,28.73-54.26,28.73-24.29,0-46.73-14.06-58.45-36.5-2.84-5.55-4.69-11.22-6.17-17.02-12.21,12.58-24.91,24.91-38.1,36.5-9.99,8.76-21.58,16.4-33.66,21.95-12.82,5.67-26.02,8.63-39.46,8.63-27.25,0-52.28-12.08-70.41-34.16-5.67-6.91-10.85-15.17-15.54-24.78-1.36-2.34-2.1-5.06-3.21-7.52-40.81,27.62-100.86,35.88-137.86,37.86-1.6.25-2.96.25-4.44.25-17.02,0-27.99-5.92-34.77-11.96-23.18,25.15-53.02,41.92-88.78,48.71-8.51,1.73-17.26,2.59-25.65,2.59-15.91,0-31.57-3.08-46.61-8.88-16.28-6.29-29.35-15.29-39.21-27-6.91,35.51-13.81,71.27-20.96,106.78-2.84,13.93-6.17,26.14-9.99,37.12-3.45,9.86-8.51,19.98-15.04,30.09-10.73,16.77-27.74,27.99-48.21,31.81-4.07.74-8.14,1.11-12.33,1.11-24.78,0-47.84-13.81-60.05-35.76-9.25-16.65-12.7-35.27-10.11-53.88,2.59-16.65,5.06-29.22,8.63-41.06,5.18-17.76,11.47-35.14,18.74-52.41-10.11,4.19-20.72,7.52-32.06,9.49-8.51,1.73-17.02,2.59-25.65,2.59-15.78,0-31.57-3.08-46.61-8.88-16.15-6.29-29.22-15.29-39.21-27-6.91,35.51-13.81,71.27-20.96,106.78-2.84,13.93-6.04,26.14-9.99,37.12-3.45,9.86-8.51,19.98-15.04,30.09-10.73,16.77-27.74,27.99-48.21,31.81-4.07.74-8.14,1.11-12.33,1.11-24.78,0-47.72-13.81-60.05-35.76-9.25-16.65-12.58-35.27-9.86-53.88,2.34-16.65,5.06-29.22,8.51-41.06,6.41-22.44,15.04-44.51,25.15-66.22-8.26,1.85-16.65,3.21-25.15,3.21s-17.88-1.11-26.76-3.08c-49.08-11.22-82.61-39.58-98.4-81.88-31.32,27.74-67.57,49.32-110.85,65.72-54.38,20.72-109.87,30.46-152.04,36.87-48.83,7.03-97.78,13.93-146.86,20.22-9.74,1.23-18.25,1.85-26.39,1.85-5.3,0-10.73-.25-16.03-.99-14.3-1.48-28.36-5.92-40.32-12.58-18.37-9.99-30.7-25.89-34.65-44.88-3.95-19.11,1.11-38.72,14.06-55.36,9-11.34,20.1-20.22,28.61-26.63,8.75-6.41,17.76-12.58,26.76-18.5,6.91-4.81,14.06-9.49,20.84-14.43,41.06-29.59,78.42-66.22,113.94-111.72,10.23-13.07,23.31-27.87,42.54-37.73,13.07-6.91,26.39-10.6,39.21-11.47-28.48-9.86-57.21-19.61-85.57-28.85.99,5.18,1.6,10.36,1.73,15.91,1.36,23.67-7.03,46.36-23.55,63.5-16.65,17.39-40.2,27.5-64.86,27.5-10.73,0-21.58-1.85-31.94-5.3-23.55-8.26-41.43-25.03-51.67-48.83-2.1-4.81-5.06-12.08-7.03-20.22-3.95-17.76-12.33-34.9-26.39-53.88-6.66-8.76-12.82-17.76-19.11-26.63-4.07-5.8-8.01-11.59-12.33-17.39-15.29-21.33-18.74-45.01-9.49-65.23,9.62-20.84,31.2-34.4,57.58-36.38,2.84-.25,5.67-.25,8.51-.25,10.23,0,20.96,1.23,31.81,3.95,24.29,5.8,42.66,11.34,59.56,17.51,62.39,22.81,124.79,45.99,185.21,69.05,47.23,18,108.76,43.03,167.08,75.71,34.65,19.48,61.16,42.42,81.26,70.16,1.73,2.34,2.96,4.93,4.44,7.27.62-14.8,5.18-29.22,14.18-40.94,14.18-18.5,36.62-29.1,61.65-29.1,7.77,0,15.66,1.11,23.55,3.21,15.41,3.95,29.96,11.34,43.16,21.82,24.66,19.36,43.16,39.33,56.23,60.67,5.43,8.75,9.62,17.39,13.44,26.26.12-1.48.25-2.84.49-4.32l.86-7.77c.99-8.38,1.97-16.89,3.82-25.03,3.82-17.02,13.19-31.57,27-42.42,12.08-9.49,26.26-14.43,40.94-14.43,23.3,0,43.53,12.21,54.62,31.32,17.76-11.47,36.87-18.99,56.47-21.83,5.92-.74,11.47-1.23,17.02-1.23,36.01,0,65.72,17.76,83.73,49.82,4.07,7.28,7.15,14.55,9.49,21.58.86-7.64,1.85-15.29,3.58-22.81,3.82-17.02,13.19-31.57,26.88-42.42,12.21-9.49,26.39-14.43,41.06-14.43,23.3,0,43.53,12.21,54.38,31.32,18-11.47,36.99-18.99,56.72-21.83,5.8-.74,11.47-1.23,16.77-1.23,36.13,0,65.85,17.76,83.97,49.82,4.69,8.63,8.51,17.39,10.85,25.52.37,1.48.74,2.71.99,4.19,4.32-9,8.76-18.37,13.07-27.99,10.36-21.83,20.96-44.27,31.2-66.22,4.69-10.11,9-20.72,13.44-31.32,14.18-34.28,30.21-73,62.27-109.87,12.82-14.67,31.81-23.18,51.67-23.18,27.5,0,51.05,15.29,60.42,39.21,16.28,41.8-15.17,73.74-45.5,104.56-20.1,20.47-43.03,43.53-58.08,72.63-12.45,24.29-24.04,48.95-33.54,69.55,4.19-.74,8.14-1.11,12.21-1.11,8.02,0,15.78,1.73,23.31,4.32,5.06-17.63,12.08-34.53,21.46-50.06,15.41-26.26,38.1-44.76,65.11-53.52,9-2.84,21.46-4.44,43.03-7.03,16.89-1.85,36.01-4.07,52.28-7.4,6.41-1.23,10.23-3.21,16.15-5.8,5.43-2.71,11.34-5.55,18.74-8.02,6.66-1.97,12.7-2.96,18.87-2.96,11.96,0,23.31,3.82,32.92,9.99,4.69-5.92,9.25-11.1,14.3-14.92,12.33-9.49,26.63-14.55,41.68-14.55,32.55,0,59.43,23.18,65.48,55.98v.12c8.02-4.07,16.89-8.01,26.26-10.85,9.74-2.84,18.5-4.32,26.63-4.32,20.59,0,37.12,9.37,45.75,26.02,10.36,19.98,5.92,48.83-11.22,72.87Z"/><path class="cls-1" d="m1981.6,252.08c-15.66,4.69-29.72,13.44-44.14,21.09-6.04,3.08-11.84,7.89-20.22,7.15-4.19-6.17-.86-10.97-.62-15.91.49-8.38,1.97-16.89.49-24.78-5.06-28.61-36.37-40.81-59.31-23.06-5.92,4.44-10.73,10.97-14.43,17.51-6.66,11.34-8.63,24.17-8.26,37.24.12,9.74.62,19.36,1.73,28.85,1.85,16.4-.49,31.94-6.78,47.1-6.66,15.41-13.07,30.58-22.81,44.51-8.02,11.84-13.69,24.66-15.41,39.09-1.36,10.6-.25,20.47,4.81,29.96,13.19,25.28,45.25,27.74,61.65,4.32,6.66-9.25,9.49-19.73,10.11-30.83.49-8.88.37-18-.74-26.88-2.71-22.94,3.95-81.88,63.38-96.43,11.96-2.96,24.29,1.11,34.16,8.51,9.12,7.03,32.55-1.97,44.51-18.87,18-25.15,18.5-62.64-28.11-48.58Z"/><path class="cls-1" d="m1818.48,241.21c-7.4-10.85-21.95-16.28-35.51-12.21-15.04,5.06-21.33,11.34-38.6,14.8-34.16,7.03-78.67,9.25-91.74,13.44-19.61,6.53-36.75,20.22-48.95,40.44-16.4,27.74-24.17,57.95-25.4,84.1.12,26.14,6.04,52.41,15.17,70.65,3.33,6.78,7.27,13.44,12.08,19.11,18.62,22.81,47.1,29.59,74.35,17.26,9.49-4.32,18.5-10.11,26.26-17.02,15.04-13.32,29.59-27.37,43.28-42.05,6.54-7.03,11.47-15.54,15.54-24.04,4.44-8.88,4.07-18.5.12-27.87-9.12-21.09-34.65-28.11-55.12-14.8-11.1,7.03-17.76,17.39-22.93,28.73-4.32,9.37-8.26,18.87-12.95,27.87-4.32,8.01-10.11,14.8-18.62,19.11-10.85,5.18-21.58,2.34-27.74-7.28-1.85-3.08-3.33-6.17-4.19-9.37-3.95-12.58-5.92-24.91-5.67-37.12,20.35-7.4,56.23-21.33,91-39.21,49.45-25.28,96.43-59.68,99.26-61.9,4.69-3.82,7.89-7.28,8.88-8.38,8.63-10.48,8.63-24.17,1.48-34.28Zm-134.16,91.12c-21.21,11.1-45.5,18.87-62.76,23.43,2.84-10.73,7.03-21.46,12.33-31.94,15.66-30.7,41.8-44.88,72.38-44.76,48.58.12,19.11,31.94-21.95,53.27Z"/><path class="cls-1" d="m1504.53,370.33c-5.06,4.56-74.35,73.37-26.63-18.99,9-17.88,28.11-62.39,50.31-105.43,38.96-75.71,118.62-109.99,102.1-152.65-8.75-22.56-43.77-27.37-61.53-7.03-38.22,44.02-51.17,91.12-71.27,134.03-36.01,77.81-78.05,164.24-91.37,200-3.33,8.51-5.3,17.88-5.67,26.88-.62,14.55,9,20.22,23.55,19.24,28.73-1.6,113.2-9.62,142.42-50.93,23.55-32.8-23.92-79.9-61.9-45.13Z"/><path class="cls-1" d="m1396.51,306.08c-1.85-6.53-4.93-13.19-8.26-19.24-14.8-26.39-39.58-38.1-70.28-33.66-16.28,2.34-31.07,8.51-44.88,17.51-8.26,5.3-15.91,10.97-24.29,16.03-2.84,1.85-6.78,2.22-11.47,3.58-.74-6.91-1.11-12.45-1.97-18-4.56-26.39-33.91-36.99-55.36-20.22-8.38,6.66-13.93,15.29-16.28,25.4-2.22,9.86-2.84,19.98-4.32,30.09-1.36,11.84-1.73,24.04-4.56,35.76-9.25,38.96-23.3,76.45-45.75,110.48-6.04,9-11.71,18.25-17.26,27.62-19.11,32.55-34.53,66.83-44.88,102.84-3.45,12.21-5.92,24.78-7.64,37.36-1.85,12.08.49,24.04,6.54,34.9,8.26,14.8,24.54,22.81,40.94,19.73,11.96-2.34,21.95-8.51,28.48-18.5,4.69-7.52,9-15.41,11.84-23.8,3.7-10.73,6.66-21.95,8.88-33.05,10.23-51.05,20.22-102.1,29.96-153.15,2.84-15.04,6.91-29.72,15.78-42.54,11.22-16.28,22.2-33.05,35.14-47.84,12.58-14.43,27-27.5,41.8-39.83,15.54-12.95,34.16-20.96,54.38-24.66,21.33-4.19,33.54,3.7,38.97,24.42,1.11,4.32,1.73,8.75,1.97,13.19,1.36,15.29-1.11,30.21-7.28,44.51-14.55,34.28-39.33,54.13-83.23,44.64-8.26-1.73-16.77-3.21-25.15-3.33-15.29-.37-28.11,5.06-35.88,18.74-7.52,13.44-5.67,26.88,2.34,39.7,7.52,11.71,18.74,19.24,31.69,24.29,18,7.15,36.62,8.63,55.61,4.93,43.16-8.38,74.48-32.55,94.21-70.28,21.33-40.94,22.69-83.97,10.23-127.62Z"/><path class="cls-1" d="m1103.78,306.08c-1.97-6.53-4.81-13.19-8.38-19.24-14.8-26.39-39.58-38.1-70.16-33.66-16.4,2.34-31.2,8.51-45.01,17.51-8.02,5.3-15.91,10.97-24.17,16.03-2.96,1.85-6.78,2.22-11.59,3.58-.74-6.91-.86-12.45-1.85-18-4.81-26.39-34.03-36.99-55.49-20.22-8.38,6.66-13.93,15.29-16.15,25.4-2.22,9.86-2.96,19.98-4.19,30.09-1.6,11.84-1.97,24.04-4.56,35.76-9.37,38.96-23.55,76.45-45.99,110.48-6.04,9-11.59,18.25-17.14,27.62-19.24,32.55-34.4,66.83-44.88,102.84-3.58,12.21-5.8,24.78-7.77,37.36-1.73,12.08.49,24.04,6.54,34.9,8.38,14.8,24.54,22.81,40.94,19.73,12.21-2.34,21.95-8.51,28.48-18.5,4.81-7.52,9-15.41,11.96-23.8,3.58-10.73,6.54-21.95,8.63-33.05,10.36-51.05,20.35-102.1,30.09-153.15,2.84-15.04,6.91-29.72,15.78-42.54,11.34-16.28,22.2-33.05,35.27-47.84,12.45-14.43,27-27.5,41.68-39.83,15.66-12.95,34.28-20.96,54.38-24.66,21.33-4.19,33.54,3.7,39.09,24.42,1.11,4.32,1.6,8.75,2.1,13.19,1.23,15.29-1.36,30.21-7.28,44.51-14.8,34.28-39.58,54.13-83.48,44.64-8.26-1.73-16.65-3.21-25.03-3.33-15.41-.37-28.24,5.06-36.01,18.74-7.52,13.44-5.67,26.88,2.34,39.7,7.64,11.71,18.74,19.24,31.69,24.29,18,7.15,36.62,8.63,55.61,4.93,43.16-8.38,74.48-32.55,94.21-70.28,21.46-40.94,22.93-83.97,10.36-127.62Z"/><path class="cls-1" d="m797.75,297.56c-12.7-20.72-30.09-37.73-49.32-53.02-9.49-7.52-20.1-13.19-32.31-16.4-38.84-10.11-70.16,17.63-60.67,53.76,1.23,4.81,3.82,9.37,5.67,13.93,1.73,3.95,3.7,7.77,5.92,12.82-4.44,5.55-9.37,10.85-13.69,16.77-7.64,10.36-15.78,20.84-22.2,32.06-9.25,15.54-10.97,32.55-6.41,49.57,10.48,39.71,38.47,64.12,80.64,73.86,27.25,6.17,52.04-.37,73.37-17.02,18.74-14.8,30.21-33.91,36.38-55.73,10.85-38.97,4.07-75.83-17.39-110.61Zm-71.52,112.33c-3.95,10.23-13.07,15.91-24.66,15.91-31.94.49-54.5-25.28-47.6-54.13,3.33-13.19,9.12-25.52,19.61-35.39,9-8.02,15.54-8.38,23.8-.49,17.63,16.65,29.84,35.76,32.06,60.91-.86,3.58-1.23,8.63-3.21,13.19Z"/><path class="cls-1" d="m595.76,276.37c-18.99-26.14-43.65-45.75-71.76-61.53-52.16-29.47-107.15-52.53-163.01-73.86-61.41-23.43-123.06-46.49-184.84-68.93-18.37-6.78-37.36-11.96-56.35-16.52-10.11-2.59-20.84-3.7-31.07-3.08-27.87,2.22-47.35,25.03-25.89,54.38,10.36,14.55,20.35,29.47,30.95,43.65,14.8,19.73,26.39,40.94,31.69,65.23,1.11,5.06,3.08,10.11,5.06,14.92,6.78,15.41,17.88,26.63,34.03,32.18,43.4,15.04,82.99-16.15,80.89-55.73-.74-16.65-5.06-31.69-13.19-45.87-2.22-3.95-3.7-8.26-5.55-12.82,9.62-3.95,17.02-.25,24.29,2.1,48.21,16.28,96.67,31.94,144.64,49.45,40.44,14.92,79.78,32.55,116.89,54.75,21.83,13.07,39.83,29.84,51.54,52.53,11.84,23.3,8.76,43.03-10.6,60.3-10.6,9.49-22.44,18-34.9,24.78-21.46,11.84-44.14,20.96-68.07,26.51-31.07,7.15-62.02,14.3-93.1,20.1-20.1,3.82-40.69,6.04-60.91,8.26-6.29.74-12.95,1.6-21.33-4.44,4.56-4.81,8.14-9,12.33-12.33,34.28-27,66.83-55.98,95.19-89.27,8.88-10.6,17.39-22.07,23.31-34.28,11.47-23.43,1.11-45.87-23.18-54.87-17.02-6.53-33.29-3.45-49.2,4.56-13.44,6.91-23.55,17.88-32.68,29.59-34.77,44.51-74.11,84.46-119.98,117.51-15.66,11.22-31.94,21.33-47.23,32.92-8.38,6.17-16.65,12.95-22.93,20.96-15.29,19.61-10.6,43.65,11.22,55.49,9,4.93,19.48,8.14,29.59,9.25,11.47,1.36,23.55.62,35.27-.99,48.58-6.29,97.54-12.95,146.12-20.22,49.69-7.27,98.65-17.14,145.87-35.14,37.85-14.3,72.38-33.91,102.71-61.04,40.81-36.5,46.24-84.22,14.18-128.49Z"/></g></g></svg>