<?xml version="1.0" encoding="UTF-8"?><svg id="Calque_2" xmlns="http://www.w3.org/2000/svg" viewBox="0 0 33.56 35.7"><defs><style>.cls-1{fill:#fff;}</style></defs><g id="Calque_1-2"><path class="cls-1" d="m21.64,18.65c3.04-1.71,5.1-4.96,5.1-8.69,0-5.49-4.47-9.96-9.96-9.96S6.81,4.47,6.81,9.96c0,3.73,2.06,6.98,5.1,8.69C5.03,20.74,0,27.14,0,34.7c0,.55.45,1,1,1s1-.45,1-1c0-8.15,6.63-14.78,14.78-14.78s14.78,6.63,14.78,14.78c0,.55.45,1,1,1s1-.45,1-1c0-7.56-5.03-13.96-11.92-16.05Zm-12.83-8.69c0-4.39,3.57-7.96,7.96-7.96s7.96,3.57,7.96,7.96-3.57,7.96-7.96,7.96-7.96-3.57-7.96-7.96Z"/></g></svg>