<?xml version="1.0" encoding="UTF-8"?><svg id="Calque_2" xmlns="http://www.w3.org/2000/svg" viewBox="0 0 77.2 57.19"><defs><style>.cls-1{fill:#e2e2e2;}</style></defs><g id="Calque_1-2"><path class="cls-1" d="m21.14,28.59c0,3.18,1.71,6.14,4.46,7.73l21.91,12.65c1.77,1.02,2.87,2.92,2.87,4.96h0c0,2.5-2.71,4.06-4.87,2.82L1.62,31.41c-2.16-1.25-2.16-4.38,0-5.63L45.51.44c2.16-1.25,4.87.31,4.87,2.81h0c0,2.05-1.09,3.94-2.87,4.96l-21.91,12.66c-2.75,1.59-4.46,4.55-4.46,7.72Z"/><path class="cls-1" d="m28.44,31.41l43.89,25.34c2.16,1.25,4.87-.31,4.87-2.81V3.25c0-2.5-2.71-4.06-4.87-2.81L28.44,25.78c-2.16,1.25-2.16,4.37,0,5.62Z"/></g></svg>