<?xml version="1.0" encoding="utf-8"?>
<!-- Generator: Adobe Illustrator 27.1.1, SVG Export Plug-In . SVG Version: 6.00 Build 0)  -->
<svg version="1.1" id="Calque_2_00000115515406075720990940000010102759860393143479_"
	 xmlns="http://www.w3.org/2000/svg" xmlns:xlink="http://www.w3.org/1999/xlink" x="0px" y="0px" viewBox="0 0 53.3 53.3"
	 style="enable-background:new 0 0 53.3 53.3;" xml:space="preserve">
<style type="text/css">
	.st0{fill:#BCBCBC;}
	.st1{fill:#161616;}
</style>
<g id="Calque_1-2">
	<g>
		<g>
			<path class="st0" d="M26.7,0C17.9,0,10.1,4.2,5.2,10.8l4.1,2.5c4-5.2,10.3-8.6,17.4-8.6c11.4,0,20.8,8.8,21.8,20l4.8,3
				c0-0.3,0-0.7,0-1C53.3,11.9,41.4,0,26.7,0z M26.7,48.6c-12.1,0-21.9-9.8-21.9-21.9c0-2.5,0.4-4.9,1.2-7.1L1.8,17
				C0.6,20,0,23.3,0,26.7c0,14.7,11.9,26.7,26.7,26.7c11.7,0,21.7-7.6,25.3-18.2l0,0l-4.2-2.6C45.2,41.8,36.7,48.6,26.7,48.6z"/>
		</g>
	</g>
</g>
<path class="st1" d="M-166.7-73l-43.9-25.3c-2.2-1.2-4.9,0.3-4.9,2.8v50.7c0,2.5,2.7,4.1,4.9,2.8l43.9-25.3
	C-164.5-68.7-164.5-71.8-166.7-73z"/>
<path class="st0" d="M-113.5-104.7L-113.5-104.7c-17.2,0-31.1-13.9-31.1-31.1v-6.7c0-17.2,13.9-31.1,31.1-31.1h0
	c17.2,0,31.1,13.9,31.1,31.1v6.7C-82.4-118.7-96.3-104.7-113.5-104.7z"/>
</svg>
