<?xml version="1.0" encoding="utf-8"?>
<!-- Generator: Adobe Illustrator 27.1.1, SVG Export Plug-In . SVG Version: 6.00 Build 0)  -->
<svg version="1.1" id="Calque_2_00000160868884092894761120000016273380061028858000_"
	 xmlns="http://www.w3.org/2000/svg" xmlns:xlink="http://www.w3.org/1999/xlink" x="0px" y="0px" viewBox="0 0 77.2 57.2"
	 style="enable-background:new 0 0 77.2 57.2;" xml:space="preserve">
<style type="text/css">
	.st0{fill:#BCBCBC;}
	.st1{fill:#161616;}
</style>
<g id="Calque_1-2">
	<g>
		<g>
			<path class="st0" d="M21.1,28.6c0,3.2,1.7,6.1,4.5,7.7L47.5,49c1.8,1,2.9,2.9,2.9,5l0,0c0,2.5-2.7,4.1-4.9,2.8L1.6,31.4
				c-2.2-1.2-2.2-4.4,0-5.6L45.5,0.4c2.2-1.2,4.9,0.3,4.9,2.8l0,0c0,2.1-1.1,3.9-2.9,5L25.6,20.9C22.8,22.5,21.1,25.4,21.1,28.6z"/>
			<path class="st0" d="M28.4,31.4l43.9,25.3c2.2,1.2,4.9-0.3,4.9-2.8V3.2c0-2.5-2.7-4.1-4.9-2.8L28.4,25.8
				C26.3,27,26.3,30.2,28.4,31.4L28.4,31.4z"/>
		</g>
	</g>
</g>
<path class="st1" d="M-145.2-122l-43.9-25.3c-2.2-1.2-4.9,0.3-4.9,2.8v50.7c0,2.5,2.7,4.1,4.9,2.8l43.9-25.3
	C-143-117.7-143-120.8-145.2-122z"/>
<path class="st0" d="M-239.3,119.3h-8.5c-14.9,0-26.9-12-26.9-26.9V77.2c0-14.9,12-26.9,26.9-26.9h8.5c14.9,0,26.9,12,26.9,26.9
	v15.2C-212.4,107.2-224.4,119.3-239.3,119.3z"/>
</svg>
