<?xml version="1.0" encoding="utf-8"?>
<!-- Generator: Adobe Illustrator 27.1.1, SVG Export Plug-In . SVG Version: 6.00 Build 0)  -->
<svg version="1.1" id="Calque_2_00000060018446665988455160000000132225588162401715_"
	 xmlns="http://www.w3.org/2000/svg" xmlns:xlink="http://www.w3.org/1999/xlink" x="0px" y="0px" viewBox="0 0 130.4 94.1"
	 style="enable-background:new 0 0 130.4 94.1;" xml:space="preserve">
<style type="text/css">
	.st0{fill:#BCBCBC;}
</style>
<g id="Calque_1-2">
	<g>
		<path class="st0" d="M51.3,92.2L27.4,74.7H11.8C5.3,74.7,0,69.4,0,62.9V35.1c0-6.5,5.3-11.8,11.8-11.8h14.5l24.5-21
			C57-3,66.6,1.4,66.6,9.6v74.9C66.6,92.3,57.6,96.9,51.3,92.2L51.3,92.2z"/>
		<g>
			<path class="st0" d="M111,89.8c-0.9,0-1.8-0.3-2.6-1c-1.5-1.4-1.6-3.8-0.2-5.4c9.6-10.4,14.7-23,14.7-36.4s-5.1-26-14.7-36.4
				c-1.4-1.5-1.3-3.9,0.2-5.4c1.5-1.4,4-1.3,5.4,0.2c10.9,11.8,16.7,26.2,16.7,41.6s-5.8,29.7-16.7,41.6C113,89.4,112,89.8,111,89.8
				L111,89.8z"/>
			<path class="st0" d="M100.2,79.1c-0.9,0-1.8-0.3-2.6-1c-1.6-1.4-1.7-3.8-0.2-5.4c6.7-7.4,10.2-16.2,10.2-25.6
				s-3.6-18.3-10.2-25.6c-1.4-1.5-1.3-4,0.2-5.4c1.6-1.4,3.9-1.3,5.4,0.2c8,8.8,12.2,19.4,12.2,30.8S111,69,103,77.8
				C102.2,78.6,101.2,79,100.2,79.1L100.2,79.1z"/>
			<path class="st0" d="M89.3,68.2c-0.9,0-1.8-0.3-2.5-0.9c-1.6-1.4-1.7-3.8-0.3-5.4c3.9-4.5,6-9.6,6-14.8s-2.1-10.4-6-14.8
				c-1.4-1.6-1.2-4,0.3-5.4c1.6-1.4,4-1.2,5.4,0.4c5.1,5.9,7.9,12.7,7.9,19.8s-2.7,14-7.9,19.8C91.4,67.7,90.4,68.2,89.3,68.2z"/>
		</g>
	</g>
</g>
<path class="st0" d="M-248.3-51.7h-8.5c-14.9,0-26.9-12-26.9-26.9v-15.2c0-14.9,12-26.9,26.9-26.9h8.5c14.9,0,26.9,12,26.9,26.9
	v15.2C-221.4-63.8-233.4-51.7-248.3-51.7z"/>
</svg>
